<svg xmlns="http://www.w3.org/2000/svg" xmlns:ev="http://www.w3.org/2001/xml-events" xmlns:xlink="http://www.w3.org/1999/xlink" baseProfile="full" height="120.5" version="1.1" width="800.0">
  <title>nums refers to a list, which refers to ints</title>
  <defs>
    <marker class="arrowend" id="id10" markerHeight="10" markerWidth="10" orient="auto" refX="10" refY="5" viewBox="0,0,10,10">
      <path d="M 0,0 L 10,5 L 0,10 L 1,5 z" fill="#FFFFFF"></path>
    </marker>
    <marker class="arrowend" id="id11" markerHeight="4" markerWidth="4" orient="auto" refX="2" refY="2" viewBox="0,0,4,4">
      <circle cx="2" cy="2" r="2" fill="#FFFFFF"></circle>
    </marker>
  </defs>
  <g transform="translate(-55.0,-4.0)">
    <polygon class="name" points="57,37.5 115,37.5 120,52.5 115,67.5 57,67.5" fill="#333333" stroke="#FFFFFF"></polygon>
    <text dy=".3em" text-anchor="middle" x="86.625" y="52.5" fill="#FFFFFF">nums</text>
    <rect class="list" height="30" width="24" x="165" y="37.5" fill="#000000" stroke="#FFFFFF"></rect>
    <rect class="list" height="30" width="24" x="189" y="37.5" fill="#000000" stroke="#FFFFFF"></rect>
    <rect class="list" height="30" width="24" x="213" y="37.5" fill="#000000" stroke="#FFFFFF"></rect>
    <path class="arrow" d="M 120,52 C 131,52 131,52 142,52 C 153,52 153,52 165,52" fill="none" stroke="#FFFFFF" marker-end="url(#id10)"></path>
    <circle class="int value" cx="166" cy="107.5" r="15" fill="#000000" stroke="#FFFFFF"></circle>
    <text dy=".3em" text-anchor="middle" x="166" y="107.5" fill="#FFFFFF">1</text>
    <circle class="int value" cx="201" cy="107.5" r="15" fill="#000000" stroke="#FFFFFF"></circle>
    <text dy=".3em" text-anchor="middle" x="201" y="107.5" fill="#FFFFFF">2</text>
    <circle class="int value" cx="236" cy="107.5" r="15" fill="#000000" stroke="#FFFFFF"></circle>
    <text dy=".3em" text-anchor="middle" x="236" y="107.5" fill="#FFFFFF">3</text>
    <path class="arrow" d="M 177,52 C 177,62 176,63 171,72 C 166,81 166,82 166,92" fill="none" stroke="#FFFFFF" marker-end="url(#id10)" marker-start="url(#id11)"></path>
    <path class="arrow" d="M 201,52 C 201,62 201,62 201,72 C 201,82 201,82 201,92" fill="none" stroke="#FFFFFF" marker-end="url(#id10)" marker-start="url(#id11)"></path>
    <path class="arrow" d="M 225,52 C 225,62 225,63 230,72 C 235,81 236,82 236,92" fill="none" stroke="#FFFFFF" marker-end="url(#id10)" marker-start="url(#id11)"></path>
    
    <!-- Added 6 rectangles with no gap -->
    <rect class="list" height="30" width="24" x="261" y="37.5" fill="#000000" stroke="#FFFFFF"></rect>
    <rect class="list" height="30" width="24" x="285" y="37.5" fill="#000000" stroke="#FFFFFF"></rect>
    <rect class="list" height="30" width="24" x="309" y="37.5" fill="#000000" stroke="#FFFFFF"></rect>
    <rect class="list" height="30" width="24" x="333" y="37.5" fill="#000000" stroke="#FFFFFF"></rect>
    <rect class="list" height="30" width="24" x="357" y="37.5" fill="#000000" stroke="#FFFFFF"></rect>
    <rect class="list" height="30" width="24" x="381" y="37.5" fill="#000000" stroke="#FFFFFF"></rect>
    <rect class="list" height="30" width="24" x="405" y="37.5" fill="#000000" stroke="#FFFFFF"></rect>
    <rect class="list" height="30" width="24" x="429" y="37.5" fill="#000000" stroke="#FFFFFF"></rect>
    <rect class="list" height="30" width="24" x="453" y="37.5" fill="#000000" stroke="#FFFFFF"></rect>
    <rect class="list" height="30" width="24" x="477" y="37.5" fill="#000000" stroke="#FFFFFF"></rect>
    <rect class="list" height="30" width="24" x="501" y="37.5" fill="#000000" stroke="#FFFFFF"></rect>
    
    <!-- Dashed line frame -->
    <rect class="frame" height="120" rx="12" ry="12" width="600" x="-25" y="82.5" fill="none" stroke="#FFFFFF" stroke-dasharray="5"></rect>
    <text class="framelabel" dy=".3em" opacity="1" text-anchor="middle" x="275" y="97.5" fill="#FFFFFF">0</text>
    <text class="top_code" dy=".3em" text-anchor="middle" x="154" y="15" fill="#FFFFFF">nums = [1, 2, 3]</text>
  </g>
</svg>
