<svg xmlns="http://www.w3.org/2000/svg" xmlns:ev="http://www.w3.org/2001/xml-events" xmlns:xlink="http://www.w3.org/1999/xlink" baseProfile="full" height="79.0" version="1.1" width="184.0">
  <title>nums and tri both refer to the same list</title>
  <defs>
    <marker class="arrowend" id="id5" markerHeight="10" markerWidth="10" orient="auto" refX="10" refY="5" viewBox="0,0,10,10">
      <path d="M 0,0 L 10,5 L 0,10 L 1,5 z" fill="#FFFFFF"></path>
    </marker>
  </defs>
  <g transform="translate(-55.0,-13.0)">
    <polygon class="name" points="57,15 115,15 120,30 115,45 57,45" fill="#333333" stroke="#FFFFFF"></polygon>
    <text dy=".3em" text-anchor="middle" x="86.625" y="30" fill="#FFFFFF">nums</text>
    <polygon class="name" points="77,60 115,60 120,75 115,90 77,90" fill="#333333" stroke="#FFFFFF"></polygon>
    <text dy=".3em" text-anchor="middle" x="96.625" y="75" fill="#FFFFFF">tri</text>
    <rect class="list" height="30" width="24" x="165" y="37.5" fill="#000000" stroke="#FFFFFF"></rect>
    <text dy=".3em" text-anchor="middle" x="177" y="52.5" fill="#FFFFFF">1</text>
    <rect class="list" height="30" width="24" x="189" y="37.5" fill="#000000" stroke="#FFFFFF"></rect>
    <text dy=".3em" text-anchor="middle" x="201" y="52.5" fill="#FFFFFF">2</text>
    <rect class="list" height="30" width="24" x="213" y="37.5" fill="#000000" stroke="#FFFFFF"></rect>
    <text dy=".3em" text-anchor="middle" x="225" y="52.5" fill="#FFFFFF">3</text>
    <path class="arrow" d="M 120,30 C 132,30 132,30 142,37 C 153,43 153,44 165,48" fill="none" stroke="#FFFFFF" marker-end="url(#id5)"></path>
    <path class="arrow" d="M 120,75 C 132,75 132,74 142,67 C 153,61 153,60 165,56" fill="none" stroke="#FFFFFF" marker-end="url(#id5)"></path>
  </g>
</svg>
