<svg xmlns="http://www.w3.org/2000/svg" xmlns:ev="http://www.w3.org/2001/xml-events" xmlns:xlink="http://www.w3.org/1999/xlink" baseProfile="full" height="79.0" version="1.1" width="116.0">
  <title>x and y both refer to 23</title>
  <defs>
    <marker class="arrowend" id="id2" markerHeight="10" markerWidth="10" orient="auto" refX="10" refY="5" viewBox="0,0,10,10">
      <path d="M 0,0 L 10,5 L 0,10 L 1,5 z" fill="#FFFFFF"></path>
    </marker>
  </defs>
  <g transform="translate(-81.0,-13.0)">
    <polygon class="name" points="83,15 115,15 120,30 115,45 83,45" fill="#333333" stroke="#FFFFFF"></polygon>
    <text dy=".3em" text-anchor="middle" x="99.625" y="30" fill="#FFFFFF">x</text>
    <polygon class="name" points="83,60 115,60 120,75 115,90 83,90" fill="#333333" stroke="#FFFFFF"></polygon>
    <text dy=".3em" text-anchor="middle" x="99.625" y="75" fill="#FFFFFF">y</text>
    <circle class="int value" cx="180" cy="52.5" r="15" fill="#000000" stroke="#FFFFFF"></circle>
    <text dy=".3em" text-anchor="middle" x="180" y="52.5" fill="#FFFFFF">23</text>
    <path class="arrow" d="M 120,30 C 132,30 132,30 142,37 C 153,43 153,44 165,48" fill="none" stroke="#FFFFFF" marker-end="url(#id2)"></path>
    <path class="arrow" d="M 120,75 C 132,75 132,74 142,67 C 153,61 153,60 165,56" fill="none" stroke="#FFFFFF" marker-end="url(#id2)"></path>
  </g>
</svg>
